<svg xmlns="http://www.w3.org/2000/svg" xmlns:xlink="http://www.w3.org/1999/xlink" viewBox="0 0 130 130">
  <defs>
    <style>
      .cls-1 {
        fill: #fff;
      }

      .cls-2 {
        fill: url(#linear-gradient);
      }

      .cls-3 {
        fill: url(#linear-gradient-2);
      }

      .cls-4 {
        fill: #55ace0;
      }

      .cls-5 {
        filter: url(#Ellipse_10);
      }
    </style>
    <filter id="Ellipse_10" x="0" y="0" width="130" height="130" filterUnits="userSpaceOnUse">
      <feOffset dy="3" input="SourceAlpha"/>
      <feGaussianBlur stdDeviation="5" result="blur"/>
      <feFlood flood-opacity="0.102"/>
      <feComposite operator="in" in2="blur"/>
      <feComposite in="SourceGraphic"/>
    </filter>
    <linearGradient id="linear-gradient" x1="0.02" y1="0.875" x2="0.976" y2="0.128" gradientUnits="objectBoundingBox">
      <stop offset="0" stop-color="#468db8"/>
      <stop offset="1" stop-color="#55ace0"/>
    </linearGradient>
    <linearGradient id="linear-gradient-2" x1="0.994" y1="0.756" x2="0.012" y2="0.247" xlink:href="#linear-gradient"/>
  </defs>
  <g id="logo" transform="translate(15 12)">
    <g class="cls-5" transform="matrix(1, 0, 0, 1, -15, -12)">
      <circle id="Ellipse_10-2" data-name="Ellipse 10" class="cls-1" cx="50" cy="50" r="50" transform="translate(15 12)"/>
    </g>
    <g id="Group_17" data-name="Group 17" transform="translate(24.955 19.952)">
      <path id="Path_4" data-name="Path 4" class="cls-2" d="M120.4,64.128A8.542,8.542,0,0,1,117.271,75.8L87.681,92.879a8.542,8.542,0,0,1-11.668-3.127h0a8.542,8.542,0,0,1,3.126-11.668L108.729,61A8.542,8.542,0,0,1,120.4,64.128Z" transform="translate(-74.867 -59.856)"/>
      <path id="Path_5" data-name="Path 5" class="cls-3" d="M124.662,130.7a8.542,8.542,0,0,1-10.461,6.04l-33-8.843a8.542,8.542,0,0,1-6.04-10.462h0A8.542,8.542,0,0,1,85.62,111.4l33,8.843a8.542,8.542,0,0,1,6.04,10.462Z" transform="translate(-74.865 -94.021)"/>
      <path id="Path_6" data-name="Path 6" class="cls-4" d="M130.639,141.907a8.541,8.541,0,0,1-3.126,11.668L97.923,170.659a8.542,8.542,0,0,1-11.668-3.126h0a8.542,8.542,0,0,1,3.126-11.668l29.589-17.083a8.541,8.541,0,0,1,11.668,3.126Z" transform="translate(-81.695 -111.709)"/>
    </g>
  </g>
</svg>
