<svg xmlns="http://www.w3.org/2000/svg" viewBox="0 0 100.001 100.001"><defs><style>.a{fill:#fff;}</style></defs><path class="a" d="M-193,9a49.688,49.688,0,0,1-19.463-3.929A49.833,49.833,0,0,1-228.355-5.644a49.834,49.834,0,0,1-10.715-15.893A49.688,49.688,0,0,1-243-41a49.688,49.688,0,0,1,3.929-19.463,49.834,49.834,0,0,1,10.715-15.893,49.833,49.833,0,0,1,15.893-10.715A49.688,49.688,0,0,1-193-91a49.688,49.688,0,0,1,19.463,3.929,49.833,49.833,0,0,1,15.893,10.715,49.833,49.833,0,0,1,10.715,15.893A49.688,49.688,0,0,1-143-41a49.688,49.688,0,0,1-3.929,19.463A49.833,49.833,0,0,1-157.644-5.644,49.833,49.833,0,0,1-173.537,5.072,49.688,49.688,0,0,1-193,9Zm-35.506-44.04h0V-29.2a15.174,15.174,0,0,0,3.42,1.187,20.583,20.583,0,0,0,4.067.34,12.31,12.31,0,0,0,5.063-.971,7.536,7.536,0,0,0,3.3-2.722,7.2,7.2,0,0,0,1.146-4.009,6.61,6.61,0,0,0-1.22-4.076,11.141,11.141,0,0,0-4.358-3.029,28.354,28.354,0,0,1-4.009-2.058,1.613,1.613,0,0,1-.739-1.279,1.361,1.361,0,0,1,.581-1.112,3.075,3.075,0,0,1,1.859-.448,14.625,14.625,0,0,1,5.877,1.561l2.009-5.063a18.918,18.918,0,0,0-7.687-1.743,10.8,10.8,0,0,0-6.707,1.876,6.245,6.245,0,0,0-2.441,5.229,7.744,7.744,0,0,0,.573,3.1,6.451,6.451,0,0,0,1.759,2.324,15.579,15.579,0,0,0,3.561,2.092c1.737.78,2.823,1.305,3.228,1.56a3.2,3.2,0,0,1,.88.756,1.437,1.437,0,0,1,.274.871,1.563,1.563,0,0,1-.68,1.3,3.629,3.629,0,0,1-2.142.507,14.588,14.588,0,0,1-3.718-.54,19.569,19.569,0,0,1-3.9-1.5Zm53.623-17.232V-28h6.557v-8.051h1.843a9.719,9.719,0,0,0,6.815-2.217,8.165,8.165,0,0,0,2.4-6.284,7.194,7.194,0,0,0-2.308-5.71c-1.531-1.333-3.854-2.009-6.906-2.009Zm-11.156,6.823h.149c-.13,2.573-.208,4.289-.224,4.964-.017.706-.025,1.309-.025,1.842V-28h6.026V-52.271h-8.749l-4.964,17.232h-.133l-5.063-17.232h-8.733V-28h5.811V-38.542c0-1.634-.117-3.969-.349-6.94h.149L-197.178-28h6.242l4.9-17.448ZM-167.13-41.4h-1.2v-5.578h1.694c1.807,0,2.723.827,2.723,2.457a3.026,3.026,0,0,1-.872,2.291A3.277,3.277,0,0,1-167.13-41.4Z" transform="translate(243 91)"/></svg>